<?xml version="1.0" encoding="UTF-8"?>
<!DOCTYPE svg PUBLIC "-//W3C//DTD SVG 1.1//EN" "http://www.w3.org/Graphics/SVG/1.1/DTD/svg11.dtd">
<!-- Creator: CorelDRAW X7 -->
<svg xmlns="http://www.w3.org/2000/svg" xml:space="preserve" height="100%" version="1.1" style="shape-rendering:geometricPrecision; text-rendering:geometricPrecision; image-rendering:optimizeQuality; fill-rule:evenodd; clip-rule:evenodd"
viewBox="0 0 500 150"
 xmlns:xlink="http://www.w3.org/1999/xlink">
 <defs>
  <style type="text/css">
   <![CDATA[
    .fil1 {fill:#364818}
    .fil0 {fill:#364818;fill-rule:nonzero}
   ]]>
  </style>
 </defs>
 <g id="Layer_x0020_1">
  <metadata id="CorelCorpID_0Corel-Layer"/>
  <polygon class="fil0" points="6,137 6,74 16,74 16,137 "/>
  <path class="fil0" d="M79 123l2 0c5,0 8,-1 10,-4 3,-4 4,-8 4,-14 0,-5 -1,-10 -4,-13 -2,-3 -5,-5 -10,-5l-2 0 0 36zm-9 14l0 -63 11 0c7,0 13,3 17,8 5,6 7,14 7,23 0,6 -1,11 -3,16 -1,4 -4,8 -7,11 -2,2 -4,3 -6,4 -3,0 -5,1 -8,1l-11 0z"/>
  <path class="fil0" d="M121 74l0 33c0,6 0,10 2,12 1,3 3,4 6,4 2,0 4,-1 6,-3 1,-3 2,-6 2,-11l0 -35 8 0 0 35c0,9 -1,15 -4,20 -3,5 -7,8 -13,8 -5,0 -9,-3 -12,-8 -3,-4 -5,-11 -5,-20l0 -35 10 0z"/>
  <path class="fil0" d="M152 118c3,2 5,4 7,5 1,1 3,1 5,1 1,0 3,0 4,-1 1,-2 1,-3 1,-5 0,-2 -2,-5 -5,-8 -1,0 -1,-1 -1,-1l-3 -2c-3,-2 -5,-5 -6,-7 -1,-3 -2,-6 -2,-10 0,-5 1,-8 4,-11 2,-3 5,-5 9,-5 2,0 3,0 5,1 2,0 3,1 5,2l0 14c-2,-2 -3,-3 -5,-4 -2,-1 -3,-2 -5,-2 -1,0 -2,1 -3,1 -1,1 -1,2 -1,4 0,1 0,2 1,3 0,1 1,2 2,2l5 4c4,3 6,6 8,9 1,3 2,6 2,10 0,5 -2,10 -4,13 -3,4 -7,6 -11,6 -2,0 -3,-1 -5,-1 -2,0 -4,-1 -6,-2l-1 -16z"/>
  <polygon class="fil0" points="194,137 194,87 181,87 181,74 216,74 216,87 204,87 204,137 "/>
  <path class="fil0" d="M232 86l-2 0 0 17 3 0c2,0 4,-1 5,-2 1,-2 2,-4 2,-7 0,-3 -1,-5 -2,-6 -1,-2 -3,-2 -6,-2zm-11 51l0 -63 11 0c3,0 5,0 7,1 2,1 4,2 5,4 2,1 3,3 4,6 1,2 1,5 1,7 0,4 -1,8 -2,11 -1,3 -3,5 -6,7l13 27 -11 0 -11 -25 -2 0 0 25 -9 0z"/>
  <polygon class="fil0" points="258,137 258,74 267,74 267,137 "/>
  <path class="fil0" d="M286 117l10 0 -5 -19 -5 19zm-16 20l21 -63 1 0 20 63 -10 0 -3 -9 -16 0 -3 9 -10 0z"/>
  <polygon class="fil0" points="315,137 315,74 325,74 325,123 341,123 341,137 "/>
  <path class="fil0" d="M371 117l10 0 -5 -19 -5 19zm-16 20l21 -63 1 0 20 63 -10 0 -3 -9 -16 0 -3 9 -10 0z"/>
  <path class="fil0" d="M411 86l-2 0 0 17 3 0c2,0 4,-1 5,-2 1,-2 2,-4 2,-7 0,-3 -1,-5 -2,-6 -1,-2 -3,-2 -6,-2zm-11 51l0 -63 10 0c4,0 6,0 8,1 2,1 4,2 5,4 2,1 3,3 4,6 0,2 1,5 1,7 0,4 -1,8 -2,11 -1,3 -3,5 -6,7l13 27 -11 0 -11 -25 -2 0 0 25 -9 0z"/>
  <polygon class="fil0" points="445,137 445,87 432,87 432,74 467,74 467,87 454,87 454,137 "/>
  <path class="fil0" d="M470 118c3,2 5,4 7,5 1,1 3,1 5,1 1,0 3,0 4,-1 1,-2 1,-3 1,-5 0,-2 -2,-5 -5,-8 -1,0 -1,-1 -2,-1l-2 -2c-3,-2 -5,-5 -6,-7 -2,-3 -2,-6 -2,-10 0,-5 1,-8 4,-11 2,-3 5,-5 9,-5 1,0 3,0 5,1 1,0 3,1 5,2l0 14c-2,-2 -4,-3 -5,-4 -2,-1 -4,-2 -5,-2 -1,0 -2,1 -3,1 -1,1 -1,2 -1,4 0,1 0,2 1,3 0,1 1,2 2,2l4 4c4,3 7,6 8,9 2,3 3,6 3,10 0,5 -2,10 -5,13 -2,4 -6,6 -10,6 -2,0 -3,-1 -5,-1 -2,0 -4,-1 -6,-2l-1 -16z"/>
  <polygon class="fil0" points="439,69 439,6 440,6 479,41 479,6 493,6 493,69 491,69 453,35 453,69 "/>
  <path class="fil0" d="M371 37c0,-4 1,-8 3,-12 1,-4 3,-7 6,-10 3,-3 6,-5 10,-7 4,-1 7,-2 11,-2 4,0 8,1 12,2 4,2 7,4 10,7 3,3 5,6 6,10 2,4 3,8 3,12 0,4 -1,8 -2,11 -1,3 -3,6 -5,9 -3,4 -6,7 -10,9 -4,2 -9,3 -14,3 -4,0 -7,-1 -11,-2 -4,-2 -7,-4 -10,-7 -3,-3 -5,-6 -6,-10 -2,-4 -3,-8 -3,-13zm15 0c0,6 1,10 4,13 3,4 7,6 11,6 5,0 9,-2 12,-6 3,-3 4,-7 4,-13 0,-5 -1,-9 -4,-13 -3,-3 -7,-5 -12,-5 -4,0 -8,2 -11,5 -3,4 -4,8 -4,13z"/>
  <polygon class="fil0" points="349,69 349,6 364,6 364,69 "/>
  <polygon class="fil0" points="307,69 307,19 287,19 287,6 342,6 342,19 322,19 322,69 "/>
  <path class="fil0" d="M242 6l0 33c0,6 1,10 3,13 2,2 5,4 9,4 4,0 7,-2 9,-4 2,-3 3,-6 3,-11l0 -35 13 0 0 35c0,9 -2,16 -6,21 -5,4 -12,7 -20,7 -8,0 -15,-2 -19,-7 -5,-5 -7,-12 -7,-21l0 -35 15 0z"/>
  <polygon class="fil0" points="180,69 180,6 195,6 195,55 220,55 220,69 "/>
  <polygon class="fil0" points="83,69 82,69 52,6 68,6 83,39 98,6 112,6 "/>
  <polygon class="fil0" points="6,69 6,6 45,6 45,19 21,19 21,30 41,30 41,43 21,43 21,56 45,56 45,69 "/>
  <path class="fil1" d="M141 6c18,0 32,14 32,31 0,18 -14,32 -32,32 -17,0 -31,-14 -31,-32 0,-17 14,-31 31,-31zm18 19c-1,5 -4,10 -13,12 0,-1 0,-2 -1,-3 4,-5 2,-13 -3,-18 7,0 13,4 17,9zm-14 15c7,2 14,-2 17,-8 1,2 1,4 1,5 0,5 -2,10 -4,14 -6,0 -12,-1 -16,-9 1,0 2,-1 2,-2zm-5 2c0,7 6,12 13,14 -3,2 -8,3 -12,3 -2,0 -5,0 -7,-1 -2,-5 -3,-11 3,-17 1,1 2,1 3,1zm-4 -4c-6,2 -9,9 -9,16 -5,-4 -8,-10 -8,-17 0,0 0,0 0,0 4,-4 10,-6 18,-2 -1,1 -1,2 -1,2 0,1 0,1 0,1zm3 -5c-4,-5 -12,-6 -18,-4 2,-6 7,-11 14,-13 5,3 8,8 7,17 0,0 0,0 -1,0 -1,0 -1,0 -2,0z"/>
  <polygon class="fil0" points="22,137 22,74 23,74 52,109 52,74 63,74 63,137 61,137 32,103 32,137 "/>
 </g>
</svg>
